<svg width="24" height="24" viewBox="0 0 24 24" fill="none" xmlns="http://www.w3.org/2000/svg">
<path d="M12.8078 4.07918C12.8078 3.74488 12.6558 3.43078 12.3924 3.22808C12.1289 3.02548 11.7878 2.95118 11.4636 3.03218L5.3876 4.55208C4.6682 4.73108 4.1616 5.37948 4.1616 6.12258V18.1293H3.0808C2.483 18.1293 2 18.6123 2 19.2101C2 19.8079 2.483 20.2908 3.0808 20.2908H12.8078V4.07918ZM10.6462 11.6446C10.6462 12.2425 10.2849 12.7254 9.8357 12.7254C9.3865 12.7254 9.0251 12.2425 9.0251 11.6446C9.0251 11.0468 9.3865 10.5639 9.8357 10.5639C10.2849 10.5639 10.6462 11.0468 10.6462 11.6446ZM13.8886 7.32158H17.1309V20.2908H20.3732C20.971 20.2908 21.454 19.8079 21.454 19.2101C21.454 18.6123 20.971 18.1293 20.3732 18.1293H19.2924V7.32158C19.2924 6.12928 18.3231 5.15998 17.1309 5.15998H13.8886V7.32158Z" fill="white"/>
</svg>
