<svg width="24" height="24" viewBox="0 0 24 24" fill="none" xmlns="http://www.w3.org/2000/svg">
<path d="M20.2043 8.9559C20.3187 9.2669 20.2221 9.6137 19.9755 9.8353L18.4275 11.2439C18.4668 11.5406 18.4883 11.8445 18.4883 12.1519C18.4883 12.4594 18.4668 12.7633 18.4275 13.06L19.9755 14.4685C20.2221 14.6902 20.3187 15.037 20.2043 15.348C20.047 15.7734 19.8575 16.181 19.6394 16.5742L19.4714 16.8638C19.2354 17.257 18.9709 17.6288 18.6813 17.9792C18.4704 18.2366 18.12 18.3224 17.8054 18.2223L15.8142 17.5895C15.3351 17.9577 14.806 18.2652 14.2412 18.4976L13.7943 20.5389C13.7228 20.8642 13.4725 21.1216 13.1436 21.1752C12.6503 21.2575 12.1426 21.3004 11.6243 21.3004C11.1059 21.3004 10.5982 21.2575 10.1049 21.1752C9.77601 21.1216 9.52571 20.8642 9.45421 20.5389L9.00741 18.4976C8.44251 18.2652 7.91341 17.9577 7.43441 17.5895L5.44671 18.2259C5.13211 18.326 4.78171 18.2366 4.57081 17.9828C4.28121 17.6324 4.01671 17.2606 3.78071 16.8674L3.61271 16.5778C3.39461 16.1845 3.20511 15.777 3.04781 15.3516C2.93341 15.0405 3.03001 14.6938 3.27661 14.4721L4.82461 13.0636C4.78531 12.7633 4.76381 12.4594 4.76381 12.1519C4.76381 11.8445 4.78531 11.5406 4.82461 11.2439L3.27661 9.8353C3.03001 9.6137 2.93341 9.2669 3.04781 8.9559C3.20511 8.5305 3.39461 8.1229 3.61271 7.7297L3.78071 7.4401C4.01671 7.0469 4.28121 6.6751 4.57081 6.3247C4.78171 6.0673 5.13211 5.9815 5.44671 6.0816L7.43791 6.7144C7.91701 6.3462 8.44611 6.0387 9.01091 5.8063L9.45781 3.765C9.52931 3.4397 9.77961 3.1823 10.1085 3.1287C10.6018 3.0429 11.1095 3 11.6278 3C12.1462 3 12.6539 3.0429 13.1472 3.1251C13.4761 3.1787 13.7264 3.4361 13.7979 3.7614L14.2447 5.8028C14.8096 6.0351 15.3387 6.3426 15.8177 6.7108L17.809 6.078C18.1236 5.9779 18.474 6.0673 18.6849 6.3211C18.9745 6.6715 19.239 7.0433 19.475 7.4365L19.643 7.7261C19.8611 8.1194 20.0505 8.5269 20.2078 8.9523L20.2043 8.9559ZM11.6278 15.0119C13.208 15.0119 14.4878 13.7321 14.4878 12.1519C14.4878 10.5718 13.208 9.2919 11.6278 9.2919C10.0477 9.2919 8.76781 10.5718 8.76781 12.1519C8.76781 13.7321 10.0477 15.0119 11.6278 15.0119Z" fill="#E1EBF8"/>
</svg>
